<svg width="25" height="25" viewBox="0 0 25 25" fill="none" xmlns="http://www.w3.org/2000/svg">
<path d="M17.2923 14.5834C17.084 14.4792 15.7298 13.8542 15.5215 13.75C15.3132 13.6459 15.1048 13.6459 14.8965 13.8542C14.6882 14.0625 14.2715 14.6875 14.0632 14.8959C13.959 15.1042 13.7507 15.1042 13.5423 15C12.8132 14.6875 12.084 14.2709 11.459 13.75C10.9382 13.2292 10.4173 12.6042 10.0007 11.9792C9.89649 11.7709 10.0007 11.5625 10.1048 11.4584C10.209 11.3542 10.3132 11.1459 10.5215 11.0417C10.6257 10.9375 10.7298 10.7292 10.7298 10.625C10.834 10.5209 10.834 10.3125 10.7298 10.2084C10.6257 10.1042 10.1048 8.85419 9.89648 8.33335C9.79232 7.60419 9.58398 7.60419 9.37565 7.60419C9.27148 7.60419 9.06315 7.60419 8.85482 7.60419C8.64648 7.60419 8.33398 7.81252 8.22982 7.91669C7.60482 8.54169 7.29232 9.27085 7.29232 10.1042C7.39648 11.0417 7.70898 11.9792 8.33398 12.8125C9.47982 14.4792 10.9382 15.8334 12.709 16.6667C13.2298 16.875 13.6465 17.0834 14.1673 17.1875C14.6882 17.3959 15.209 17.3959 15.834 17.2917C16.5632 17.1875 17.1882 16.6667 17.6048 16.0417C17.8132 15.625 17.8132 15.2084 17.709 14.7917C17.709 14.7917 17.5007 14.6875 17.2923 14.5834ZM19.8965 5.10419C15.834 1.04169 9.27149 1.04169 5.20898 5.10419C1.87565 8.43752 1.25065 13.5417 3.54232 17.6042L2.08398 22.9167L7.60482 21.4584C9.16732 22.2917 10.834 22.7084 12.5007 22.7084C18.2298 22.7084 22.8132 18.125 22.8132 12.3959C22.9173 9.68752 21.7715 7.08335 19.8965 5.10419ZM17.084 19.6875C15.7298 20.5209 14.1673 21.0417 12.5007 21.0417C10.9382 21.0417 9.47982 20.625 8.12565 19.8959L7.81315 19.6875L4.58398 20.5209L5.41732 17.3959L5.20898 17.0834C2.70898 12.9167 3.95898 7.70835 8.02148 5.10419C12.084 2.50002 17.2923 3.85419 19.7923 7.81252C22.2923 11.875 21.1465 17.1875 17.084 19.6875Z" fill="white"/>
</svg>
